{"title":"The Block - S12E25 - Hallway, Laundry &amp; Powder Rooms","uid":15961611,"size":381808946,"categoryP":"video","categoryS":"tv_shows","magnet":"?xt=urn:btih:d536e756ec8fef8f44cb0f98f281181cc809b7fc&amp;dn=The+Block+-+S12E25+-+Hallway%2C+Laundry+%26amp%3B+Powder+Rooms&amp;tr=udp%3A%2F%2Ftracker.leechers-paradise.org%3A6969&amp;tr=udp%3A%2F%2Fzer0day.ch%3A1337&amp;tr=udp%3A%2F%2Fopen.demonii.com%3A1337&amp;tr=udp%3A%2F%2Ftracker.coppersurfer.tk%3A6969&amp;tr=udp%3A%2F%2Fexodus.desync.com%3A6969","seeders":7,"leechers":6,"uploader":"Bullrout","files":1,"time":1475669197,"description":"The Block - S12E25 - Hallway, Laundry &amp; Powder Rooms\r\n\r\nThe contestants begin their seventh week of renovating, with the hallways, laundries and powder rooms next on the agenda. Progress is very slow as teams hold each other up and Andy and Ben have major budget problems.\r\n\r\n\r\nComplete name                            : The Block - S12E25 - Hallway, Laundry &amp; Powder Rooms.mp4\r\nFormat                                   : MPEG-4\r\nFormat profile                           : Base Media / Version 2\r\nCodec ID                                 : mp42 (mp42/isom/avc1)\r\nFile size                                : 364 MiB\r\nDuration                                 : 46 min 5 s\r\nOverall bit rate mode                    : Variable\r\nOverall bit rate                         : 1 104 kb/s\r\n\r\nVideo\r\nID                                       : 2\r\nFormat                                   : AVC\r\nFormat/Info                              : Advanced Video Codec\r\nFormat profile                           :   \r\nFormat settings, CABAC                   : Yes\r\nFormat settings, ReFrames                : 3 frames\r\nCodec ID                                 : avc1\r\nCodec ID/Info                            : Advanced Video Coding\r\nDuration                                 : 46 min 5 s\r\nBit rate mode                            : Variable\r\nBit rate                                 : 973 kb/s\r\nMaximum bit rate                         : 1 000 kb/s\r\nWidth                                    : 720 pixels\r\nHeight                                   : 404 pixels\r\nDisplay aspect ratio                     : 16:9\r\nOriginal display aspect ratio            : 16:9\r\nFrame rate mode                          : Constant\r\nFrame rate                               : 25.000 FPS\r\nStandard                                 : PAL\r\nColor space                              : YUV\r\nChroma subsampling                       : 4:2:0\r\nBit depth                                : 8 bits\r\nScan type                                : Progressive\r\nBits/(Pixel*Frame)                       : 0.134\r\nStream size                              : 321 MiB (88%)\r\nWriting library                          : x264 core 112\r\nColor range                              : Limited\r\nColor primaries                          : BT.601 PAL\r\nTransfer characteristics                 : BT.470 System B, BT.470 System G\r\nMatrix coefficients                      : BT.601\r\n\r\nAudio\r\nID                                       : 1\r\nFormat                                   : AAC\r\nFormat/Info                              : Advanced Audio Codec\r\nFormat profile                           : LC\r\nCodec ID                                 : 40\r\nDuration                                 : 46 min 5 s\r\nBit rate mode                            : Variable\r\nBit rate                                 : 128 kb/s\r\nMaximum bit rate                         : 576 kb/s\r\nChannel(s)                               : 2 channels\r\nChannel positions                        : Front: L R\r\nSampling rate                            : 48.0 kHz\r\nFrame rate                               : 46.875 FPS (1024 spf)\r\nCompression mode                         : Lossy\r\nStream size                              : 42.2 MiB (12%)","torrent":{"xt":"urn:btih:d536e756ec8fef8f44cb0f98f281181cc809b7fc","amp;dn":"The+Block+-+S12E25+-+Hallway%2C+Laundry+%26amp%3B+Powder+Rooms","amp;tr":["udp%3A%2F%2Ftracker.leechers-paradise.org%3A6969","udp%3A%2F%2Fzer0day.ch%3A1337","udp%3A%2F%2Fopen.demonii.com%3A1337","udp%3A%2F%2Ftracker.coppersurfer.tk%3A6969","udp%3A%2F%2Fexodus.desync.com%3A6969"],"infoHash":"d536e756ec8fef8f44cb0f98f281181cc809b7fc","infoHashBuffer":{"type":"Buffer","data":[213,54,231,86,236,143,239,143,68,203,15,152,242,129,24,28,200,9,183,252]},"announce":[],"urlList":[]}}